<svg width="716" height="716" viewBox="0 0 716 716" fill="none" xmlns="http://www.w3.org/2000/svg">
<g clip-path="url(#clip0_4_4425)">
<g opacity="0.4">
<path d="M508.129 291.224L612.378 284.05C619.489 283.559 622.058 293.299 615.614 296.379L521.356 341.524C516.115 344.083 516.574 351.673 522.12 353.536L621.137 386.796C627.929 389.043 626.583 399.039 619.419 399.422L515.08 405.053C509.274 405.37 506.783 412.613 511.165 416.434L589.961 485.062C595.372 489.77 590.285 498.48 583.546 496.072L485.023 461.38C479.504 459.437 474.473 465.138 477.032 470.38L523.568 563.958C526.701 570.377 518.737 576.449 513.432 571.687L435.66 501.899C431.305 497.998 424.459 501.339 424.856 507.172L432.031 611.419C432.521 618.531 422.781 621.101 419.702 614.655L374.556 520.399C371.997 515.157 364.407 515.616 362.544 521.163L329.285 620.178C327.037 626.972 317.041 625.625 316.658 618.462L311.028 514.121C310.711 508.316 303.468 505.825 299.646 510.207L231.019 589.002C226.309 594.414 217.601 589.326 220.008 582.589L254.701 484.064C256.643 478.546 250.942 473.515 245.701 476.073L152.122 522.611C145.705 525.743 139.631 517.779 144.394 512.476L214.182 434.701C218.084 430.347 214.742 423.501 208.909 423.897L104.661 431.073C97.5488 431.563 94.981 421.824 101.424 418.745L195.682 373.598C200.923 371.04 200.463 363.449 194.919 361.587L95.9013 328.327C89.1092 326.079 90.4553 316.084 97.6191 315.7L201.958 310.07C207.765 309.753 210.256 302.51 205.875 298.689L127.078 230.061C121.666 225.352 126.753 216.644 133.492 219.05L232.015 253.743C237.533 255.685 242.565 249.984 240.006 244.743L193.47 151.164C190.338 144.746 198.301 138.674 203.606 143.436L281.378 213.224C285.733 217.125 292.579 213.784 292.182 207.951L284.928 103.676C284.438 96.5638 294.177 93.9956 297.257 100.44L342.402 194.697C344.961 199.938 352.552 199.478 354.414 193.933L387.728 94.89C389.975 88.0975 399.97 89.444 400.354 96.6077L405.985 200.947C406.302 206.753 413.543 209.244 417.366 204.862L485.993 126.067C490.703 120.655 499.411 125.742 497.004 132.48L462.312 231.004C460.369 236.523 466.07 241.554 471.312 238.996L564.89 192.459C571.308 189.327 577.381 197.29 572.618 202.593L502.83 280.367C498.929 284.722 502.27 291.568 508.104 291.172L508.129 291.224Z" stroke="#E8E8E8" stroke-width="0.668651" stroke-miterlimit="10"/>
<path d="M459.229 313.303L529.527 308.464C534.323 308.134 536.055 314.702 531.71 316.779L468.148 347.222C464.614 348.947 464.925 354.066 468.663 355.322L535.434 377.75C540.015 379.266 539.107 386.006 534.276 386.265L463.915 390.062C460.001 390.276 458.321 395.16 461.276 397.737L514.411 444.015C518.061 447.19 514.629 453.063 510.086 451.44L443.647 428.046C439.926 426.736 436.533 430.58 438.258 434.115L469.64 497.218C471.752 501.545 466.383 505.641 462.806 502.43L410.36 455.368C407.424 452.737 402.806 454.991 403.074 458.924L407.913 529.223C408.245 534.018 401.676 535.75 399.6 531.405L369.156 467.844C367.431 464.31 362.312 464.619 361.056 468.359L338.627 535.13C337.112 539.71 330.372 538.802 330.113 533.972L326.316 463.612C326.103 459.696 321.219 458.016 318.641 460.971L272.364 514.105C269.188 517.755 263.315 514.324 264.937 509.781L288.333 443.342C289.642 439.622 285.798 436.228 282.263 437.953L219.16 469.336C214.832 471.448 210.738 466.078 213.948 462.5L261.009 410.055C263.64 407.119 261.387 402.503 257.453 402.769L187.155 407.607C182.36 407.939 180.627 401.371 184.973 399.295L248.534 368.85C252.069 367.125 251.758 362.007 248.019 360.75L181.248 338.322C176.668 336.806 177.576 330.067 182.407 329.807L252.767 326.012C256.682 325.797 258.362 320.913 255.406 318.336L202.272 272.058C198.623 268.882 202.053 263.01 206.597 264.633L273.035 288.028C276.757 289.338 280.149 285.493 278.424 281.958L247.043 218.855C244.93 214.527 250.301 210.432 253.877 213.643L306.322 260.704C309.258 263.335 313.876 261.081 313.608 257.148L308.716 186.832C308.386 182.036 314.953 180.304 317.029 184.65L347.473 248.211C349.198 251.745 354.317 251.436 355.573 247.696L378.038 180.907C379.553 176.327 386.294 177.235 386.552 182.066L390.349 252.426C390.562 256.341 395.446 258.021 398.024 255.067L444.301 201.93C447.478 198.282 453.35 201.712 451.727 206.255L428.332 272.694C427.023 276.415 430.867 279.808 434.401 278.083L497.505 246.701C501.833 244.589 505.928 249.959 502.716 253.536L455.655 305.981C453.025 308.919 455.278 313.535 459.211 313.267L459.229 313.303Z" stroke="#E8E8E8" stroke-width="0.668651" stroke-miterlimit="10"/>
<path d="M408.776 335.651L443.925 333.232C446.323 333.066 447.19 336.35 445.016 337.389L413.236 352.611C411.468 353.474 411.623 356.032 413.493 356.661L446.879 367.874C449.169 368.633 448.715 372.002 446.299 372.132L411.12 374.031C409.161 374.137 408.322 376.579 409.799 377.867L436.367 401.007C438.191 402.594 436.476 405.531 434.205 404.72L400.985 393.022C399.125 392.368 397.428 394.29 398.29 396.056L413.981 427.609C415.037 429.772 412.352 431.819 410.564 430.214L384.342 406.683C382.873 405.369 380.565 406.495 380.699 408.461L383.118 443.611C383.283 446.008 379.999 446.874 378.961 444.702L363.739 412.921C362.877 411.154 360.317 411.31 359.689 413.179L348.476 446.565C347.717 448.855 344.346 448.4 344.218 445.985L342.319 410.805C342.212 408.848 339.77 408.007 338.482 409.486L315.343 436.052C313.754 437.877 310.819 436.162 311.63 433.89L323.328 400.671C323.982 398.81 322.06 397.114 320.293 397.977L288.741 413.667C286.578 414.723 284.53 412.039 286.136 410.25L309.666 384.027C310.981 382.559 309.855 380.25 307.889 380.384L272.739 382.804C270.34 382.969 269.476 379.685 271.648 378.647L303.428 363.426C305.196 362.563 305.04 360.003 303.171 359.375L269.785 348.161C267.496 347.403 267.949 344.033 270.365 343.903L305.544 342.006C307.502 341.898 308.342 339.457 306.865 338.168L280.297 315.028C278.472 313.441 280.188 310.504 282.46 311.316L315.679 323.013C317.539 323.669 319.236 321.747 318.373 319.979L302.683 288.427C301.626 286.263 304.312 284.216 306.1 285.822L332.323 309.351C333.791 310.667 336.099 309.541 335.966 307.573L333.52 272.416C333.354 270.018 336.638 269.151 337.676 271.325L352.898 303.105C353.761 304.873 356.32 304.717 356.948 302.847L368.181 269.453C368.938 267.162 372.308 267.617 372.438 270.031L374.336 305.212C374.443 307.17 376.884 308.01 378.174 306.533L401.312 279.965C402.9 278.14 405.836 279.856 405.025 282.127L393.327 315.347C392.673 317.207 394.595 318.904 396.363 318.041L427.914 302.351C430.079 301.294 432.125 303.978 430.52 305.768L406.99 331.99C405.673 333.458 406.8 335.767 408.768 335.633L408.776 335.651Z" stroke="#E8E8E8" stroke-width="0.668651" stroke-miterlimit="10"/>
</g>
</g>
<defs>
<clipPath id="clip0_4_4425">
<rect width="534.921" height="534.921" fill="white" transform="translate(481.361 0.324219) rotate(63.9828)"/>
</clipPath>
</defs>
</svg>
