<svg width="16" height="18" viewBox="0 0 16 18" fill="none" xmlns="http://www.w3.org/2000/svg">
<g clip-path="url(#clip0_4_4219)">
<path d="M8 4.65032L6.40987 0.484497L6.43729 4.98131L3.47087 1.7799L5.11583 5.91719L1.21727 4.17097L4.23304 7.32673L0 7.29249L3.92049 8.98165L0 10.6765L4.23304 10.6423L1.21727 13.798L5.11583 12.0461L3.47087 16.1891L6.43729 12.9877L6.40987 17.4845L8 13.3187L9.59013 17.4845L9.56271 12.9877L12.5291 16.1891L10.8842 12.0461L14.7827 13.798L11.767 10.6423L16 10.6765L12.0795 8.98165L16 7.29249L11.767 7.32673L14.7827 4.17097L10.8842 5.91719L12.5291 1.7799L9.56271 4.98131L9.59013 0.484497L8 4.65032Z" fill="#E8E8E8"/>
</g>
<defs>
<clipPath id="clip0_4_4219">
<rect width="16" height="17" fill="white" transform="translate(0 0.484497)"/>
</clipPath>
</defs>
</svg>
