<svg width="367" height="317" viewBox="0 0 367 317" fill="none" xmlns="http://www.w3.org/2000/svg">
<g clip-path="url(#clip0_4_4127)">
<g opacity="0.4">
<path d="M59.2652 313.944C146.199 313.944 216.667 244.473 216.667 158.743C216.667 73.0132 146.199 3.54248 59.2652 3.54248C-27.6683 3.54248 -98.1367 73.058 -98.1367 158.788C-98.1367 244.518 -27.6683 313.989 59.2652 313.989V313.944Z" stroke="#E8E8E8" stroke-miterlimit="10"/>
<path d="M206.78 313.944C293.713 313.944 364.182 244.473 364.182 158.743C364.182 73.0132 293.713 3.54248 206.78 3.54248C119.846 3.54248 49.3779 73.0132 49.3779 158.743C49.3779 244.473 119.846 313.944 206.78 313.944Z" stroke="#E8E8E8" stroke-miterlimit="10"/>
<path d="M-98.7627 158.744H217.294" stroke="#E8E8E8" stroke-miterlimit="10"/>
</g>
</g>
<defs>
<clipPath id="clip0_4_4127">
<rect width="367" height="316" fill="white" transform="translate(0 0.765625)"/>
</clipPath>
</defs>
</svg>
