<svg width="33" height="251" viewBox="0 0 33 251" fill="none" xmlns="http://www.w3.org/2000/svg">
<g clip-path="url(#clip0_4_4102)">
<path d="M18.8091 131.68C18.9102 131.445 18.9672 131.031 18.9791 130.43C18.991 129.83 18.9605 129.182 18.8887 128.496C18.8117 127.771 18.7198 127.28 18.6162 127.03C18.2173 126.12 17.7621 125.958 17.2508 126.562C17.6221 128.885 18.03 130.552 18.4757 131.588C18.5966 131.876 18.707 131.907 18.8091 131.68ZM17.4511 140.426C17.5421 140.956 17.6334 141.142 17.7248 140.986C17.7962 140.829 17.8489 140.353 17.8858 139.549C17.9154 138.707 17.9131 137.879 17.8768 137.084C17.767 134.51 17.506 131.421 17.096 127.819C17.0463 131.346 17.0956 134.802 17.2427 138.18C17.2847 139.108 17.3548 139.857 17.4511 140.426ZM18.4018 116.959C18.4066 116.155 18.3771 115.515 18.3114 115.024C18.2519 114.58 18.1678 114.416 18.06 114.526C17.9571 114.597 17.8716 114.917 17.8033 115.471C17.5436 117.579 17.3388 120.592 17.1899 124.518C17.6054 123.423 17.9709 121.611 18.2845 119.066C18.3576 118.472 18.398 117.77 18.4019 116.974M15.5697 134.513C15.5657 135.473 15.6018 136.238 15.678 136.807C15.7427 137.29 15.84 137.477 15.9678 137.367C16.0904 137.218 16.1916 136.82 16.2695 136.187C16.5042 134.282 16.6991 131.301 16.8534 127.266C16.3104 128.712 15.9317 130.306 15.7162 132.055C15.6277 132.773 15.5798 133.585 15.5697 134.513ZM16.6645 111.763C16.5783 111.194 16.494 110.984 16.4126 111.141C16.3412 111.297 16.2904 111.758 16.2593 112.515C16.2286 113.35 16.2309 114.177 16.2683 114.98C16.4267 118.607 16.6501 121.61 16.9395 123.996C17.0069 120.227 16.9796 116.935 16.8584 114.111C16.816 113.105 16.7507 112.317 16.6645 111.748M15.2407 120.018C15.1453 120.37 15.089 120.908 15.0737 121.634C15.0566 122.196 15.0871 122.843 15.1641 123.569C15.2407 124.216 15.3314 124.668 15.4359 124.909C15.8349 125.82 16.284 125.981 16.7853 125.378C16.3435 122.618 15.9297 120.771 15.5418 119.868C15.4362 119.619 15.3361 119.667 15.2407 120.018Z" fill="#EDF738"/>
</g>
<defs>
<clipPath id="clip0_4_4102">
<rect width="22.6721" height="20.1529" fill="white" transform="matrix(-0.122269 0.992497 0.1327 0.991156 17.0156 105.346)"/>
</clipPath>
</defs>
</svg>
