<svg width="508" height="222" viewBox="0 0 508 222" fill="none" xmlns="http://www.w3.org/2000/svg">
<g clip-path="url(#clip0_4_4091)">
<path d="M0.568359 2.21399C36.7694 2.21399 66.1048 50.3686 66.1048 109.795C66.1048 169.221 36.7694 217.375 0.568359 217.375" stroke="#EDF738" stroke-opacity="0.4" stroke-width="0.918685"/>
<path d="M254.714 142.242C228.874 150.695 196.055 155.883 161.913 155.883C74.5311 155.883 3.62695 123.258 3.62695 82.9935C3.62695 42.7289 74.5311 10.104 161.913 10.104C200.236 10.104 227.314 13.5185 254.714 23.976" stroke="#EDF738" stroke-opacity="0.4" stroke-width="0.918685"/>
<path d="M254.713 195.95C227.313 206.47 200.547 209.421 162.099 209.421C74.7166 209.421 3.8125 176.733 3.8125 136.531C3.8125 96.3286 74.7166 63.5788 162.099 63.5788C196.24 63.5788 228.759 68.4005 254.599 76.8542" stroke="#EDF738" stroke-opacity="0.4" stroke-width="0.918685"/>
<path d="M507.383 217.375C471.182 217.375 441.847 169.221 441.847 109.795C441.847 50.3686 471.182 2.21399 507.383 2.21399" stroke="#EDF738" stroke-opacity="0.4" stroke-width="0.918685"/>
<path d="M254.412 77.1699C280.253 68.7162 311.897 63.7066 346.039 63.7066C433.421 63.7066 504.325 96.3313 504.325 136.596C504.325 176.86 433.483 209.486 346.039 209.486C307.715 209.486 282.114 206.407 254.713 195.95" stroke="#EDF738" stroke-opacity="0.4" stroke-width="0.918685"/>
<path d="M254.714 23.9761C282.114 13.456 307.528 9.91605 345.976 9.91605C433.358 9.91605 504.262 42.5409 504.262 82.8055C504.262 123.07 433.42 155.695 345.976 155.695C311.835 155.695 280.554 150.695 254.714 142.242" stroke="#EDF738" stroke-opacity="0.4" stroke-width="0.918685"/>
<path d="M257.096 218.189C336.932 218.189 401.651 169.66 401.651 109.795C401.651 49.9298 336.932 1.39981 257.096 1.39981C177.262 1.39981 112.542 49.9298 112.542 109.795C112.542 169.66 177.262 218.189 257.096 218.189Z" stroke="#EDF738" stroke-opacity="0.4" stroke-width="0.918685"/>
<path d="M254.725 1.39981V218.189" stroke="#EDF738" stroke-opacity="0.4" stroke-width="0.918685"/>
</g>
<defs>
<clipPath id="clip0_4_4091">
<rect width="507.114" height="220.484" fill="white" transform="translate(0.568359 0.648438)"/>
</clipPath>
</defs>
</svg>
