<svg width="128" height="33" viewBox="0 0 128 33" fill="none" xmlns="http://www.w3.org/2000/svg">
<g clip-path="url(#clip0_4_5273)">
<path fill-rule="evenodd" clip-rule="evenodd" d="M0 14.7573C0 7.09895 6.20832 0.890625 13.8667 0.890625C21.525 0.890625 27.7333 7.09895 27.7333 14.7573V32.8906H20.2667H12.8H0V24.3573V19.5573V14.7573ZM2.13333 24.3573V30.7573H10.6667V24.3573C10.6667 22.0009 8.75642 20.0906 6.4 20.0906C4.04359 20.0906 2.13333 22.0009 2.13333 24.3573ZM12.8 30.7573V24.3573C12.8 20.8226 9.93462 17.9573 6.4 17.9573C4.76084 17.9573 3.26561 18.5735 2.13333 19.5869V19.5573C2.13333 15.139 5.71506 11.5573 10.1333 11.5573C14.5516 11.5573 18.1333 15.139 18.1333 19.5573V30.7573H12.8ZM25.6 30.7573H20.2667V19.5573C20.2667 13.9608 15.7298 9.42395 10.1333 9.42395C6.94016 9.42395 4.09195 10.9009 2.23459 13.2089C2.99238 7.46063 7.9114 3.02396 13.8667 3.02396C20.3468 3.02396 25.6 8.27716 25.6 14.7573V30.7573Z" fill="white"/>
<path d="M68.3574 23.7981H70.7543V9.95703H68.3574V23.7981Z" fill="white"/>
<path fill-rule="evenodd" clip-rule="evenodd" d="M63.7951 21.5239C63.2206 22.0533 62.25 22.2885 61.1605 22.2885C59.556 22.2885 58.3081 21.7788 57.8327 20.7201C57.6742 20.4065 57.595 20.0732 57.5554 19.6615H66.8654C66.8654 18.5048 66.7069 17.6029 66.3504 16.7403C65.5382 14.9563 63.6762 13.878 61.0021 13.878C58.3675 13.878 56.4065 14.8779 55.5943 16.7011C55.2972 17.3677 55.1387 18.0931 55.1387 18.9949C55.1387 19.8575 55.2774 20.6025 55.5943 21.2495C56.4065 23.0727 58.4071 24.0922 61.1407 24.0922C62.9433 24.0922 64.5478 23.6805 65.6175 22.7198C66.0789 22.3047 66.412 21.8211 66.6168 21.2485H64.0557C63.9787 21.3479 63.8915 21.4405 63.7951 21.5239ZM61.0021 15.7013C62.5273 15.7013 63.7158 16.1718 64.2111 17.2501C64.3101 17.4853 64.3893 17.701 64.429 17.9754H57.595C57.6346 17.7402 57.7138 17.5245 57.8129 17.3089C58.3081 16.211 59.4372 15.7013 61.0021 15.7013Z" fill="white"/>
<path d="M83.5249 22.6806C82.4751 23.6021 80.9498 24.0922 79.0878 24.0922C76.5523 24.0922 74.5912 23.1316 73.7593 21.2887C73.4622 20.6221 73.3037 19.8575 73.3037 18.9753C73.3037 18.1127 73.4622 17.3285 73.7593 16.6815C74.5912 14.8779 76.5127 13.878 79.0878 13.878C80.9498 13.878 82.4552 14.3485 83.5051 15.3092C84.2776 15.9757 84.6936 16.858 84.753 17.9166H82.1977C82.1383 17.3481 81.9006 16.8972 81.5441 16.5639C80.9894 16.0738 80.098 15.8581 79.1076 15.8581C77.6616 15.8581 76.5721 16.407 76.0967 17.4069C75.9184 17.8578 75.8194 18.3283 75.8194 18.9753C75.8194 19.6027 75.9184 20.0928 76.0967 20.5241C76.5721 21.5239 77.6616 22.0729 79.1076 22.0729C80.098 22.0729 81.0092 21.8572 81.5441 21.3475C81.9402 21.0142 82.1779 20.5437 82.1977 19.9948H84.7927C84.7134 21.073 84.2975 21.9749 83.5249 22.6806Z" fill="white"/>
<path fill-rule="evenodd" clip-rule="evenodd" d="M91.0262 24.0726C93.7994 24.0726 95.7011 23.0139 96.5132 21.2299C96.8103 20.5633 96.9688 19.8183 96.9688 18.9753C96.9688 18.1519 96.8103 17.4069 96.5132 16.7403C95.7011 14.9563 93.7994 13.878 91.0262 13.878C88.2728 13.878 86.3712 14.9563 85.5393 16.7795C85.2421 17.4265 85.1035 18.1715 85.1035 18.9753C85.1035 19.7987 85.2421 20.5241 85.5393 21.1907C86.3712 22.9943 88.2728 24.0726 91.0262 24.0726ZM91.0262 22.1121C89.5208 22.1121 88.3719 21.5435 87.8767 20.4849C87.6984 20.0536 87.5994 19.5634 87.5994 18.9753C87.5994 18.4068 87.6984 17.897 87.8767 17.4853C88.3719 16.4266 89.5208 15.8581 91.0262 15.8581C92.5317 15.8581 93.7004 16.407 94.1956 17.4853C94.3739 17.897 94.4531 18.4068 94.4531 18.9753C94.4531 19.5634 94.3739 20.0536 94.1956 20.4849C93.7004 21.5435 92.5317 22.1121 91.0262 22.1121Z" fill="white"/>
<path fill-rule="evenodd" clip-rule="evenodd" d="M122.294 22.2885C123.383 22.2885 124.354 22.0533 124.928 21.5239C125.025 21.4405 125.112 21.3479 125.189 21.2485H127.75C127.545 21.8211 127.212 22.3047 126.751 22.7198C125.681 23.6805 124.077 24.0922 122.274 24.0922C119.54 24.0922 117.54 23.0727 116.728 21.2495C116.411 20.6025 116.272 19.8575 116.272 18.9949C116.272 18.0931 116.431 17.3677 116.728 16.7011C117.54 14.8779 119.501 13.878 122.135 13.878C124.81 13.878 126.672 14.9563 127.484 16.7403C127.84 17.6029 127.999 18.5048 127.999 19.6615H118.689C118.728 20.0732 118.808 20.4065 118.966 20.7201C119.441 21.7788 120.689 22.2885 122.294 22.2885ZM125.344 17.2501C124.849 16.1718 123.661 15.7013 122.135 15.7013C120.571 15.7013 119.441 16.211 118.946 17.3089C118.847 17.5245 118.768 17.7402 118.728 17.9754H125.562C125.523 17.701 125.443 17.4853 125.344 17.2501Z" fill="white"/>
<path d="M103.164 13.8984C100.577 13.8984 98.4805 15.9968 98.4805 18.5854V23.8051H100.928V18.0661C100.928 16.8307 101.929 15.8691 103.164 15.8691C104.398 15.8691 105.399 16.8307 105.399 18.0661V23.8051H107.847V18.0661C107.847 16.8307 108.848 15.8691 110.082 15.8691C111.317 15.8691 112.318 16.8307 112.318 18.0661V23.8051H114.766V18.5854C114.766 15.9968 112.669 13.8984 110.082 13.8984C108.712 13.8984 107.479 14.4872 106.623 15.4258C105.767 14.4872 104.534 13.8984 103.164 13.8984Z" fill="white"/>
<path d="M49.6743 21.0574L52.2015 14.1615H54.7679L50.8889 23.7806H48.4596L46.0499 17.0413L43.6403 23.7806H41.211L37.332 14.1615H39.8984L42.4256 21.077L44.8353 14.1615H47.245L49.6743 21.0574Z" fill="white"/>
</g>
<defs>
<clipPath id="clip0_4_5273">
<rect width="128" height="32" fill="white" transform="translate(0 0.890625)"/>
</clipPath>
</defs>
</svg>
