<svg width="121" height="31" viewBox="0 0 121 31" fill="none" xmlns="http://www.w3.org/2000/svg">
<g clip-path="url(#clip0_4_5113)">
<path fill-rule="evenodd" clip-rule="evenodd" d="M120.595 23.5176C115.581 32.0195 107.639 29.5525 105.254 27.621C104.239 28.3097 102.459 29.8194 100.085 29.6451C95.0307 29.274 93.2206 22.0506 93.2206 22.0506C93.2569 22.0795 91.7149 22.5827 90.8815 22.5737C90.8708 24.6921 89.0397 29.7523 84.0979 29.6875C78.5525 29.6152 77.4251 21.3535 77.4251 21.3535C77.4251 21.3535 76.8733 22.1198 74.775 22.8831C74.8806 21.2556 74.8034 29.4398 68.157 29.5601C62.9026 29.6553 61.4842 21.2261 61.4842 21.2261C61.4842 21.2261 60.5727 22.173 58.8061 22.5014C58.9184 20.8475 58.7359 29.5879 52.0887 29.5601C47.5966 29.5415 46.0615 24.3677 46.1809 23.6496C46.3332 22.7345 44.6627 29.6888 40.2993 29.5805C38.4987 29.5276 37.1562 28.2238 36.3139 26.4857C35.1862 27.7761 33.549 29.5805 31.7124 29.5805C28.4155 29.5805 26.9621 26.823 27.2083 18.9472C27.2292 18.0131 27.1618 17.6457 26.2332 17.5059C25.6759 17.4129 25.1051 17.2369 24.5011 17.1441C24.3076 17.79 22.6658 29.3703 17.0203 29.5901C15.1263 29.6638 14.0907 28.0232 13.2402 26.8055C11.9365 28.5302 10.2155 29.6451 7.76378 29.6451C3.6108 29.6451 0.78125 26.2877 0.78125 22.1463C0.78125 18.0047 3.6108 14.6478 7.76378 14.6478C8.49807 14.6478 8.7042 14.753 9.37502 14.9487C7.99546 2.38822 11.2534 0.425189 14.1034 0.425189C16.8396 0.425189 21.5141 6.7758 14.9367 22.8843C16.397 27.6891 19.5451 27.4173 21.0579 17.5265C21.3658 15.516 20.5426 12.8029 21.8231 12.4242C24.1639 11.7322 24.4122 13.8085 25.5098 14.1544C26.6703 14.52 27.3477 14.4843 28.4618 14.717C30.3655 15.0888 31.1084 16.1115 30.8765 18.3892C30.5979 21.2713 30.1107 25.4661 31.5963 25.9773C32.6676 26.3487 34.6236 24.1269 34.9669 22.9113C35.31 21.6957 35.3817 21.2796 35.4121 20.388C35.4586 18.4824 35.5168 17.0855 35.8418 15.6443C35.9809 15.0866 36.1394 14.7173 36.7704 14.6921C37.2895 14.6788 38.2389 14.5225 38.6569 14.8478C39.2139 15.2664 39.1443 15.6911 39.0804 16.8088C38.4325 32.7458 43.4188 24.7899 44.9056 18.4197C44.3761 11.2164 44.7396 0.557094 49.2535 0.378318C51.6011 0.285344 52.6389 2.16602 52.7531 3.56976C53.076 7.53447 51.2673 14.1019 48.8886 18.5185C47.5291 27.5304 54.8326 29.3122 56.0005 22.119C54.0897 21.2105 52.0246 17.5331 53.705 15.741C54.648 14.7353 58.5731 16.1801 58.6374 19.3314C60.5627 18.8165 60.8198 17.7294 60.8465 17.9095C60.3172 10.7062 60.8081 0.557187 65.3223 0.37841C67.6696 0.285436 68.7072 2.16611 68.8214 3.56986C69.1443 7.53455 67.3356 14.102 64.9572 18.5187C63.5976 27.5304 70.9012 29.3124 72.0688 22.1192C70.6541 21.8462 67.6677 17.9348 69.3908 15.7411C70.3116 14.5689 74.2224 17.0067 74.6602 19.4357C76.5098 18.9123 76.761 17.8598 76.7875 18.0369C76.2581 10.8339 76.749 0.684845 81.2632 0.506068C83.6105 0.413094 84.6481 2.29377 84.7623 3.69752C85.0852 7.66221 83.2765 14.2298 80.8978 18.6464C79.5385 27.6583 86.8419 29.4398 88.0099 22.2466C86.0657 21.9229 83.3027 17.793 85.5265 15.6803C86.415 14.8361 89.8099 17.0274 90.6046 19.5273C91.7087 19.4848 92.396 19.104 92.5434 19.0656C90.7806 10.6094 92.0929 0.463229 96.9489 0.378534C99.5736 0.332801 102.14 1.79748 101.013 9.84243C99.9382 17.5183 96.0737 20.7395 96.0827 20.7887C96.3076 21.7083 98.2906 29.4041 103.284 25.3435C103.026 24.7582 102.767 24.1603 102.622 23.4358C101.795 19.2161 103.42 14.4499 107.839 13.6796C110.371 13.2382 112.755 14.4708 113.133 17.2495C113.753 21.7964 109.647 25.0893 108.086 25.8036C107.387 25.4064 114.425 29.9203 118.602 20.8743C118.844 20.3578 119.136 20.4016 119.514 20.6678C119.781 20.8558 121.303 22.2974 120.595 23.5176ZM10.7847 21.0291C10.5722 20.3937 10.136 18.9936 9.98179 18.387C9.13238 17.6484 8.5261 17.5284 7.4358 17.5284C5.01283 17.5284 3.58671 19.7686 3.58671 22.1842C3.58671 24.5997 5.14036 26.8402 7.56335 26.8402C9.66314 26.8402 11.2613 25.4125 11.7489 23.3915C11.4076 22.6036 11.069 21.8795 10.7847 21.0291ZM14.0441 3.75005C12.3416 3.75005 11.764 7.81142 11.8761 11.2761C11.9752 14.3394 12.8312 17.0362 13.2752 18.2446C13.388 18.396 13.367 18.2975 13.4677 18.4581C16.4238 11.9811 15.1977 3.75005 14.0441 3.75005ZM49.4967 3.87763C47.2962 3.62526 47.3105 12.7917 47.5836 14.8478C48.7265 13.0196 50.7117 4.36988 49.4967 3.87763ZM65.565 3.87763C63.3646 3.62526 63.3788 12.7917 63.6521 14.8478C64.7948 13.0196 66.7801 4.36988 65.565 3.87763ZM81.506 4.00516C79.3055 3.75279 79.3197 12.9192 79.593 14.9755C80.7357 13.1471 82.721 4.49738 81.506 4.00516ZM97.1918 3.34104C93.7634 4.02949 94.5617 15.4602 95.0825 17.4651C99.1208 11.9184 99.204 3.13269 97.1918 3.34104ZM110.04 17.6256C109.866 16.8968 108.995 16.5073 108.393 16.6033C106.672 16.8384 105.002 18.9823 105.648 22.2463C105.792 22.9732 106.152 23.6424 106.146 23.6201C109.999 21.0355 110.326 18.9988 110.04 17.6256ZM37.4452 12.1691C36.9532 12.1692 36.4722 12.0234 36.0631 11.7501C35.654 11.4768 35.3351 11.0883 35.1467 10.6338C34.9584 10.1793 34.9091 9.67912 35.0051 9.19658C35.1009 8.71402 35.3379 8.27076 35.6858 7.92284C36.0336 7.57492 36.4768 7.33798 36.9594 7.24198C37.4419 7.14598 37.9421 7.19523 38.3967 7.38352C38.8512 7.57179 39.2397 7.89065 39.513 8.29974C39.7863 8.70883 39.9322 9.18979 39.9322 9.68177C39.9322 10.0084 39.8679 10.3318 39.7429 10.6336C39.618 10.9353 39.4348 11.2095 39.2038 11.4405C38.9728 11.6715 38.6987 11.8547 38.397 11.9797C38.0952 12.1047 37.7719 12.1691 37.4452 12.1691Z" fill="white"/>
</g>
<defs>
<clipPath id="clip0_4_5113">
<rect width="120" height="30" fill="white" transform="translate(0.78125 0.375)"/>
</clipPath>
</defs>
</svg>
