<svg width="36" height="65" viewBox="0 0 36 65" fill="none" xmlns="http://www.w3.org/2000/svg">
<g clip-path="url(#clip0_4_4346)">
<path d="M18.1094 23.5144L14.631 14.9377L14.6909 24.1959L8.20191 17.6047L11.8003 26.1227L3.27216 22.5275L9.86915 29.0247L0.609375 28.9542L9.18546 32.4319L0.609375 35.9213L9.86915 35.8508L3.27216 42.3479L11.8003 38.741L8.20191 47.2707L14.6909 40.6795L14.631 49.9377L18.1094 41.3611L21.5877 49.9377L21.5278 40.6795L28.0169 47.2707L24.4184 38.741L32.9467 42.3479L26.3496 35.8508L35.6094 35.9213L27.0333 32.4319L35.6094 28.9542L26.3496 29.0247L32.9467 22.5275L24.4184 26.1227L28.0169 17.6047L21.5278 24.1959L21.5877 14.9377L18.1094 23.5144Z" fill="#E8E8E8"/>
</g>
<defs>
<clipPath id="clip0_4_4346">
<rect width="35" height="35" fill="white" transform="translate(0.609375 14.9375)"/>
</clipPath>
</defs>
</svg>
