<svg width="36" height="65" viewBox="0 0 36 65" fill="none" xmlns="http://www.w3.org/2000/svg">
<g clip-path="url(#clip0_4_4342)">
<path d="M18.3906 23.5144L14.9122 14.9377L14.9722 24.1959L8.48316 17.6047L12.0815 26.1227L3.55341 22.5275L10.1504 29.0247L0.890625 28.9542L9.46671 32.4319L0.890625 35.9213L10.1504 35.8508L3.55341 42.3479L12.0815 38.741L8.48316 47.2707L14.9722 40.6795L14.9122 49.9377L18.3906 41.3611L21.869 49.9377L21.809 40.6795L28.2982 47.2707L24.6997 38.741L33.2279 42.3479L26.6309 35.8508L35.8906 35.9213L27.3145 32.4319L35.8906 28.9542L26.6309 29.0247L33.2279 22.5275L24.6997 26.1227L28.2982 17.6047L21.809 24.1959L21.869 14.9377L18.3906 23.5144Z" fill="#E8E8E8"/>
</g>
<defs>
<clipPath id="clip0_4_4342">
<rect width="35" height="35" fill="white" transform="translate(0.890625 14.9375)"/>
</clipPath>
</defs>
</svg>
