<svg width="17" height="18" viewBox="0 0 17 18" fill="none" xmlns="http://www.w3.org/2000/svg">
<g clip-path="url(#clip0_4_4202)">
<path d="M12.6977 8.98444C12.6977 11.0901 11.092 12.7901 9.11594 12.7901C7.1398 12.7901 5.53418 11.0841 5.53418 8.98444C5.53418 6.88479 7.1398 5.17883 9.11594 5.17883C11.092 5.17883 12.6977 6.88479 12.6977 8.98444Z" fill="#E8E8E8"/>
<path d="M9.11594 12.7901C11.0941 12.7901 12.6977 11.0862 12.6977 8.98444C12.6977 6.88266 11.0941 5.17883 9.11594 5.17883C7.13779 5.17883 5.53418 6.88266 5.53418 8.98444C5.53418 11.0862 7.13779 12.7901 9.11594 12.7901Z" stroke="#E8E8E8" stroke-width="0.36" stroke-miterlimit="10"/>
<path d="M8.95312 0.484497V17.4845M0.953125 8.9845H16.9531" stroke="#E8E8E8" stroke-width="1.08" stroke-miterlimit="10"/>
</g>
<defs>
<clipPath id="clip0_4_4202">
<rect width="16" height="17" fill="white" transform="translate(0.953125 0.484497)"/>
</clipPath>
</defs>
</svg>
