<svg width="17" height="18" viewBox="0 0 17 18" fill="none" xmlns="http://www.w3.org/2000/svg">
<g clip-path="url(#clip0_4_4165)">
<path d="M8.72514 8.06543L8.37695 16.0683H9.52823L9.18004 8.06543H8.72514Z" fill="#E8E8E8"/>
<path d="M8.37695 0.0625H9.52823L9.18004 8.06534H8.72514L8.37695 0.0625Z" fill="#E8E8E8"/>
<path d="M16.953 7.49243V8.6381L8.9502 8.28991V7.84063L16.953 7.49243Z" fill="#E8E8E8"/>
<path d="M0.953125 8.6381V7.49243L8.95034 7.84063V8.28991L0.953125 8.6381Z" fill="#E8E8E8"/>
<path d="M15.0155 13.3164L14.2068 14.1308L8.79297 8.2227L9.11309 7.90259L15.0155 13.3164Z" fill="#E8E8E8"/>
<path d="M2.89062 2.81432L3.69934 2L9.11318 7.90245L8.79307 8.22256L2.89062 2.81432Z" fill="#E8E8E8"/>
<path d="M14.2068 2L15.0155 2.81432L9.11309 8.22256L8.79297 7.90245L14.2068 2Z" fill="#E8E8E8"/>
<path d="M3.69934 14.1308L2.89062 13.3164L8.79307 7.90259L9.11318 8.22831L3.69934 14.1308Z" fill="#E8E8E8"/>
</g>
<defs>
<clipPath id="clip0_4_4165">
<rect width="16" height="17" fill="white" transform="translate(0.953125 0.0625)"/>
</clipPath>
</defs>
</svg>
