<svg width="288" height="353" viewBox="0 0 288 353" fill="none" xmlns="http://www.w3.org/2000/svg">
<g filter="url(#filter0_d_4_5061)">
<rect x="64" y="29.4062" width="160" height="224" rx="80" fill="white" shape-rendering="crispEdges"/>
<g clip-path="url(#clip0_4_5061)">
<path d="M100.356 136.389C100.176 136.568 99.9865 136.737 99.7888 136.896V134.214H97.3975V155.088H99.7956V147.434C103.247 151.406 107.226 151.007 109.8 149.4C112.954 147.447 114.306 143.239 113.178 139.355C111.428 133.633 104.26 131.668 100.356 136.389ZM104.74 148.231C101.586 148.231 99.6537 145.529 99.6268 142.152C99.5995 138.774 102.221 135.984 105.362 135.957C108.503 135.93 110.988 138.585 110.988 142.138C110.959 145.525 108.189 148.247 104.801 148.218H104.801H104.733L104.74 148.231Z" fill="#7D888E"/>
<path d="M185.646 129.351V134.079H190.679V136.241H185.775C185.741 136.761 185.687 137.139 185.687 137.592C185.687 140.078 185.782 142.57 185.687 145.022C185.538 147.948 187.038 148.569 189.74 148.028C189.969 147.966 190.194 147.891 190.415 147.806C190.976 149.636 190.625 150.19 188.801 150.42C184.998 150.872 183.174 149.264 183.167 145.421V136.342L181.006 136.241V134.214L183.154 134.079V129.351H185.646Z" fill="#7D888E"/>
<path d="M136.043 150.129H133.625V134.214H135.996V137.889C137.664 135.37 139.515 133.762 142.474 133.883V136.363C137.678 137.261 136.037 139.294 136.037 144.266C136.043 146.164 136.043 148.096 136.043 150.129Z" fill="#7D888E"/>
<path d="M157.315 127.587V136.842C153.1 133.065 149.29 132.788 146.061 135.781C142.832 138.773 142.548 144.157 145.278 147.663C146.37 149.078 147.945 150.039 149.702 150.365C152.762 150.98 155.16 149.785 157.302 147.13V150.082H159.618V127.58H157.315V127.587ZM151.512 148.332C148.358 148.258 145.913 145.468 145.98 142.002C146.048 138.537 148.405 135.923 151.607 135.963C154.809 136.004 157.382 138.753 157.335 142.266C157.308 145.609 154.626 148.4 151.519 148.332H151.512Z" fill="#7D888E"/>
<path d="M129.444 138.942C129.302 136.504 127.802 134.889 125.465 134.261C122.589 133.531 119.545 133.885 116.913 135.254L117.589 137.233C120.419 136.179 121.919 135.97 123.77 136.2C125.85 136.463 127.694 138.449 126.985 140.807L126.256 140.652C123.553 140.145 120.885 139.847 118.311 141.036C115.883 142.066 114.749 144.869 115.779 147.298C116.141 148.152 116.744 148.882 117.514 149.399C118.859 150.296 120.472 150.699 122.081 150.541C124.02 150.392 125.832 149.517 127.154 148.089L127.269 150.115H129.518C129.518 149.758 129.606 149.44 129.599 149.183C129.579 145.758 129.646 142.32 129.444 138.942ZM124.83 147.886C122.851 148.839 120.831 148.98 118.974 147.603C117.748 146.602 117.565 144.798 118.565 143.572C118.748 143.349 118.963 143.155 119.203 142.995C121.463 141.952 124.031 141.79 126.404 142.543C126.807 142.727 127.099 143.09 127.194 143.522C127.538 145.346 126.554 147.161 124.837 147.866L124.83 147.886Z" fill="#7D888E"/>
<path d="M171.346 133.728C166.683 133.65 162.84 137.367 162.763 142.03C162.685 146.693 166.402 150.536 171.065 150.613C175.724 150.691 179.565 146.979 179.648 142.32V142.266C179.735 137.648 176.061 133.835 171.443 133.748C171.44 133.748 171.437 133.748 171.434 133.748L171.346 133.728ZM171.346 148.379C168.056 148.379 165.449 145.603 165.462 142.077C165.476 138.551 167.982 135.923 171.319 135.95C174.656 135.977 177.176 138.706 177.176 142.158C177.176 145.61 174.615 148.366 171.339 148.379H171.346Z" fill="#7D888E"/>
</g>
</g>
<defs>
<filter id="filter0_d_4_5061" x="0" y="0.40625" width="288" height="352" filterUnits="userSpaceOnUse" color-interpolation-filters="sRGB">
<feFlood flood-opacity="0" result="BackgroundImageFix"/>
<feColorMatrix in="SourceAlpha" type="matrix" values="0 0 0 0 0 0 0 0 0 0 0 0 0 0 0 0 0 0 127 0" result="hardAlpha"/>
<feOffset dy="35"/>
<feGaussianBlur stdDeviation="32"/>
<feComposite in2="hardAlpha" operator="out"/>
<feColorMatrix type="matrix" values="0 0 0 0 0 0 0 0 0 0 0 0 0 0 0 0 0 0 0.08 0"/>
<feBlend mode="normal" in2="BackgroundImageFix" result="effect1_dropShadow_4_5061"/>
<feBlend mode="normal" in="SourceGraphic" in2="effect1_dropShadow_4_5061" result="shape"/>
</filter>
<clipPath id="clip0_4_5061">
<rect width="93.4693" height="27.6562" fill="white" transform="translate(97.2656 127.578)"/>
</clipPath>
</defs>
</svg>
