<svg width="54" height="265" viewBox="0 0 54 265" fill="none" xmlns="http://www.w3.org/2000/svg">
<g clip-path="url(#clip0_205_1736)">
<g clip-path="url(#clip1_205_1736)">
<path d="M0.046875 93.6328H53.1113V264.991H0.046875V93.6328Z" fill="white"/>
<path d="M20.0881 247.298V245.398H23.975V241.305H20.0881V239.405H30.3161V241.305H25.7274V245.398H30.3161V247.298H20.0881ZM29.9362 235.869C29.6053 236.434 29.1524 236.866 28.5776 237.163C28.0028 237.46 27.356 237.609 26.6342 237.609C25.9134 237.609 25.2656 237.46 24.6917 237.163C24.1234 236.871 23.6513 236.422 23.3321 235.869C23.0012 235.305 22.8353 234.637 22.8353 233.867C22.8353 233.097 23.0012 232.429 23.3321 231.865C23.6513 231.311 24.1234 230.862 24.6917 230.571C25.2656 230.274 25.9144 230.126 26.6342 230.126C27.357 230.126 28.0028 230.274 28.5776 230.571C29.1459 230.862 29.6177 231.311 29.9362 231.865C30.2671 232.429 30.4331 233.097 30.4331 233.867C30.4331 234.637 30.2671 235.305 29.9362 235.869ZM28.2337 232.522C27.7988 232.192 27.267 232.026 26.6332 232.026C26.0004 232.026 25.4675 232.192 25.0326 232.522C24.5998 232.854 24.3838 233.302 24.3838 233.868C24.3838 234.432 24.6008 234.881 25.0326 235.213C25.4675 235.544 26.0004 235.71 26.6332 235.71C27.267 235.71 27.7988 235.544 28.2337 235.213C28.6686 234.881 28.8825 234.433 28.8825 233.868C28.8835 233.302 28.6686 232.854 28.2337 232.522ZM22.9513 228.485V226.672H24.1369C23.7528 226.406 23.4289 226.062 23.1862 225.663C22.9537 225.28 22.8318 224.84 22.8343 224.392C22.8343 223.71 23.0242 223.163 23.4041 222.747C23.785 222.334 24.3358 222.126 25.0556 222.126H30.3161V223.938H25.5965C25.1776 223.938 24.8697 224.034 24.6757 224.223C24.4808 224.413 24.3838 224.67 24.3838 224.992C24.3838 225.294 24.4988 225.572 24.7337 225.825C24.9677 226.079 25.3106 226.283 25.7634 226.438C26.2173 226.594 26.7561 226.672 27.379 226.672H30.3161V228.485H22.9513ZM29.9362 218.769C29.6174 219.322 29.1456 219.771 28.5776 220.063C28.0028 220.36 27.356 220.508 26.6342 220.508C25.9134 220.508 25.2656 220.36 24.6917 220.063C24.1236 219.771 23.6515 219.322 23.3321 218.769C23.0012 218.204 22.8353 217.537 22.8353 216.767C22.8353 215.996 23.0012 215.329 23.3321 214.764C23.6513 214.211 24.1234 213.762 24.6917 213.471C25.2656 213.174 25.9144 213.025 26.6342 213.025C27.357 213.025 28.0028 213.174 28.5776 213.471C29.1524 213.768 29.6053 214.199 29.9362 214.764C30.2671 215.329 30.4331 215.996 30.4331 216.767C30.4341 217.536 30.2671 218.203 29.9362 218.769ZM28.2337 215.422C27.7988 215.091 27.267 214.925 26.6332 214.925C26.0004 214.925 25.4675 215.091 25.0326 215.422C24.5998 215.753 24.3838 216.2 24.3838 216.767C24.3838 217.331 24.6008 217.78 25.0326 218.111C25.4675 218.443 26.0004 218.609 26.6332 218.609C27.267 218.609 27.7988 218.443 28.2337 218.111C28.6686 217.78 28.8825 217.332 28.8825 216.767C28.8835 216.2 28.6686 215.753 28.2337 215.422ZM22.9513 211.383V209.571H24.1499C23.731 209.306 23.4081 208.985 23.1782 208.605C22.9483 208.225 22.8333 207.821 22.8333 207.392C22.8333 207.12 22.8833 206.823 22.9792 206.5L24.6608 206.836C24.5227 207.065 24.4517 207.328 24.4558 207.596C24.4558 208.172 24.7167 208.644 25.2386 209.014C25.7594 209.384 26.5802 209.571 27.6989 209.571H30.3151V211.383H22.9513ZM29.8502 204.885C29.4593 205.396 28.9935 205.736 28.4476 205.901L27.6719 204.455C28.0528 204.317 28.3517 204.126 28.5646 203.878C28.7795 203.629 28.8855 203.334 28.8855 202.993C28.894 202.762 28.8357 202.533 28.7176 202.335C28.6056 202.16 28.4236 202.072 28.1697 202.072C27.9448 202.072 27.7638 202.177 27.6219 202.385C27.4799 202.595 27.331 202.919 27.176 203.358C27.157 203.426 27.118 203.528 27.059 203.665C26.8351 204.23 26.5532 204.669 26.2113 204.98C25.8714 205.293 25.4325 205.447 24.8977 205.447C24.5168 205.447 24.1709 205.345 23.859 205.141C23.5422 204.93 23.2858 204.641 23.1152 204.301C22.9246 203.927 22.8288 203.513 22.8363 203.094C22.8363 202.597 22.9413 202.145 23.1502 201.735C23.3611 201.327 23.656 201.01 24.0359 200.786L25.0286 201.868C24.5988 202.16 24.3848 202.554 24.3848 203.052C24.3808 203.232 24.4348 203.409 24.5388 203.556C24.5824 203.622 24.642 203.676 24.712 203.713C24.7821 203.75 24.8604 203.769 24.9397 203.768C25.1156 203.768 25.2776 203.665 25.4295 203.461C25.5795 203.256 25.7634 202.857 25.9764 202.262C26.1813 201.698 26.4502 201.261 26.7811 200.954C27.113 200.646 27.5369 200.494 28.0518 200.494C28.7725 200.494 29.3504 200.723 29.7832 201.181C30.2161 201.639 30.4331 202.238 30.4331 202.978C30.4341 203.737 30.2391 204.374 29.8502 204.885ZM35.5176 110.639L30.737 125.608H27.4719L24.8887 115.926L22.3054 125.608H19.0384L14.2578 110.639H17.9697L20.6419 120.915L23.1662 110.639H26.6102L29.1334 120.915L31.8067 110.639H35.5176ZM38.0138 120.796C39.4394 120.796 40.5091 121.864 40.5091 123.291C40.5091 124.716 39.4394 125.786 38.0138 125.786C36.5892 125.786 35.5206 124.716 35.5206 123.291C35.5196 121.864 36.5892 120.796 38.0138 120.796Z" fill="black"/>
</g>
</g>
<defs>
<clipPath id="clip0_205_1736">
<rect width="53.0625" height="264.883" fill="white" transform="translate(0.046875 0.0937195)"/>
</clipPath>
<clipPath id="clip1_205_1736">
<rect width="53.0625" height="171.344" fill="white" transform="translate(0.046875 93.6328)"/>
</clipPath>
</defs>
</svg>
