<svg width="36" height="36" viewBox="0 0 36 36" fill="none" xmlns="http://www.w3.org/2000/svg">
<g clip-path="url(#clip0_15_5348)">
<path fill-rule="evenodd" clip-rule="evenodd" d="M18.3906 0.96167C18.1884 1.25306 17.984 1.54276 17.7774 1.83076C13.4784 7.82393 8.23659 13.0776 2.25681 17.3862C1.96977 17.593 1.68104 17.7976 1.39062 18.0001C1.68098 18.2026 1.96965 18.4073 2.25663 18.6142C8.23505 22.9245 13.4766 28.1779 17.7773 34.1697C17.9839 34.4576 18.1883 34.7472 18.3906 35.0384C18.5927 34.7471 18.7969 34.4573 19.0034 34.1694C23.3006 28.1747 28.5427 22.9209 34.5238 18.614C34.8111 18.4072 35.1 18.2025 35.3906 18.0001C35.0999 17.7977 34.8109 17.5932 34.5236 17.3864C28.5411 13.0812 23.2989 7.82711 19.0033 1.83114C18.7968 1.54302 18.5926 1.25319 18.3906 0.96167ZM18.3901 2.69085C14.1315 8.56605 8.97623 13.7326 3.11365 18.0003C8.97496 22.2696 14.13 27.436 18.3901 33.31C22.6468 27.4333 27.8023 22.2665 33.6661 18.0003C27.801 13.7357 22.6453 8.56872 18.3901 2.69085Z" fill="#F85430"/>
</g>
<defs>
<clipPath id="clip0_15_5348">
<rect width="35" height="36" fill="white" transform="translate(0.890625)"/>
</clipPath>
</defs>
</svg>
