<svg width="36" height="36" viewBox="0 0 36 36" fill="none" xmlns="http://www.w3.org/2000/svg">
<g clip-path="url(#clip0_15_5320)">
<path fill-rule="evenodd" clip-rule="evenodd" d="M18.2344 0.961609C18.0322 1.253 17.8278 1.5427 17.6212 1.8307C13.3222 7.82387 8.08034 13.0775 2.10056 17.3861C1.81352 17.5929 1.52479 17.7975 1.23438 18C1.52473 18.2025 1.8134 18.4072 2.10038 18.6141C8.0788 22.9244 13.3204 28.1778 17.6211 34.1696C17.8277 34.4575 18.0321 34.7471 18.2344 35.0383C18.4365 34.747 18.6407 34.4572 18.8472 34.1693C23.1444 28.1746 28.3865 22.9208 34.3676 18.6139C34.6549 18.4071 34.9438 18.2024 35.2344 18C34.9437 17.7976 34.6547 17.5931 34.3674 17.3863C28.3849 13.0811 23.1427 7.82705 18.8471 1.83108C18.6406 1.54296 18.4364 1.25313 18.2344 0.961609ZM18.2339 2.69079C13.9753 8.56599 8.81998 13.7325 2.9574 18.0002C8.81871 22.2695 13.9738 27.4359 18.2339 33.3099C22.4906 27.4332 27.6461 22.2664 33.5099 18.0002C27.6448 13.7356 22.4891 8.56866 18.2339 2.69079Z" fill="#F85430"/>
</g>
<defs>
<clipPath id="clip0_15_5320">
<rect width="35" height="36" fill="white" transform="translate(0.734375)"/>
</clipPath>
</defs>
</svg>
