<svg width="36" height="36" viewBox="0 0 36 36" fill="none" xmlns="http://www.w3.org/2000/svg">
<g clip-path="url(#clip0_15_5326)">
<path fill-rule="evenodd" clip-rule="evenodd" d="M18.4219 0.961609C18.2197 1.253 18.0153 1.5427 17.8087 1.8307C13.5097 7.82387 8.26784 13.0775 2.28806 17.3861C2.00102 17.5929 1.71229 17.7975 1.42188 18C1.71223 18.2025 2.0009 18.4072 2.28788 18.6141C8.2663 22.9244 13.5079 28.1778 17.8086 34.1696C18.0152 34.4575 18.2196 34.7471 18.4219 35.0383C18.624 34.747 18.8282 34.4572 19.0347 34.1693C23.3319 28.1746 28.574 22.9208 34.5551 18.6139C34.8424 18.4071 35.1313 18.2024 35.4219 18C35.1312 17.7976 34.8422 17.5931 34.5549 17.3863C28.5724 13.0811 23.3302 7.82705 19.0346 1.83108C18.8281 1.54296 18.6239 1.25313 18.4219 0.961609ZM18.4214 2.69079C14.1628 8.56599 9.00748 13.7325 3.1449 18.0002C9.00621 22.2695 14.1613 27.4359 18.4214 33.3099C22.6781 27.4332 27.8336 22.2664 33.6974 18.0002C27.8323 13.7356 22.6766 8.56866 18.4214 2.69079Z" fill="#F85430"/>
</g>
<defs>
<clipPath id="clip0_15_5326">
<rect width="35" height="36" fill="white" transform="translate(0.921875)"/>
</clipPath>
</defs>
</svg>
