<svg width="36" height="36" viewBox="0 0 36 36" fill="none" xmlns="http://www.w3.org/2000/svg">
<g clip-path="url(#clip0_15_5342)">
<path fill-rule="evenodd" clip-rule="evenodd" d="M18.4375 0.96167C18.2353 1.25306 18.0309 1.54276 17.8243 1.83076C13.5253 7.82393 8.28346 13.0776 2.30369 17.3862C2.01665 17.593 1.72791 17.7976 1.4375 18.0001C1.72785 18.2026 2.01653 18.4073 2.30351 18.6142C8.28193 22.9245 13.5235 28.1779 17.8242 34.1697C18.0308 34.4576 18.2352 34.7472 18.4375 35.0384C18.6396 34.7471 18.8438 34.4573 19.0503 34.1694C23.3475 28.1747 28.5896 22.9209 34.5707 18.614C34.858 18.4072 35.1469 18.2025 35.4375 18.0001C35.1468 17.7977 34.8578 17.5932 34.5705 17.3864C28.588 13.0812 23.3458 7.82711 19.0502 1.83114C18.8437 1.54302 18.6395 1.25319 18.4375 0.96167ZM18.437 2.69085C14.1784 8.56605 9.02311 13.7326 3.16052 18.0003C9.02183 22.2696 14.1769 27.436 18.437 33.31C22.6937 27.4333 27.8492 22.2665 33.713 18.0003C27.8479 13.7357 22.6922 8.56872 18.437 2.69085Z" fill="#F85430"/>
</g>
<defs>
<clipPath id="clip0_15_5342">
<rect width="35" height="36" fill="white" transform="translate(0.9375)"/>
</clipPath>
</defs>
</svg>
