<svg width="36" height="36" viewBox="0 0 36 36" fill="none" xmlns="http://www.w3.org/2000/svg">
<g clip-path="url(#clip0_15_5336)">
<path fill-rule="evenodd" clip-rule="evenodd" d="M18.2344 0.96167C18.0322 1.25306 17.8278 1.54276 17.6212 1.83076C13.3222 7.82393 8.08034 13.0776 2.10056 17.3862C1.81352 17.593 1.52479 17.7976 1.23438 18.0001C1.52473 18.2026 1.8134 18.4073 2.10038 18.6142C8.0788 22.9245 13.3204 28.1779 17.6211 34.1697C17.8277 34.4576 18.0321 34.7472 18.2344 35.0384C18.4365 34.7471 18.6407 34.4573 18.8472 34.1694C23.1444 28.1747 28.3865 22.9209 34.3676 18.614C34.6549 18.4072 34.9438 18.2025 35.2344 18.0001C34.9437 17.7977 34.6547 17.5932 34.3674 17.3864C28.3849 13.0812 23.1427 7.82711 18.8471 1.83114C18.6406 1.54302 18.4364 1.25319 18.2344 0.96167ZM18.2339 2.69085C13.9753 8.56605 8.81998 13.7326 2.9574 18.0003C8.81871 22.2696 13.9738 27.436 18.2339 33.31C22.4906 27.4333 27.6461 22.2665 33.5099 18.0003C27.6448 13.7357 22.4891 8.56872 18.2339 2.69085Z" fill="#F85430"/>
</g>
<defs>
<clipPath id="clip0_15_5336">
<rect width="35" height="36" fill="white" transform="translate(0.734375)"/>
</clipPath>
</defs>
</svg>
