<svg width="24" height="25" viewBox="0 0 24 25" fill="none" xmlns="http://www.w3.org/2000/svg">
<g clip-path="url(#clip0_4_4457)">
<path d="M16.5 0.459961H7.5C3.3585 0.459961 0 3.81846 0 7.95996V16.96C0 21.1015 3.3585 24.46 7.5 24.46H16.5C20.6415 24.46 24 21.1015 24 16.96V7.95996C24 3.81846 20.6415 0.459961 16.5 0.459961ZM21.75 16.96C21.75 19.855 19.395 22.21 16.5 22.21H7.5C4.605 22.21 2.25 19.855 2.25 16.96V7.95996C2.25 5.06496 4.605 2.70996 7.5 2.70996H16.5C19.395 2.70996 21.75 5.06496 21.75 7.95996V16.96Z" fill="#E8E8E8"/>
<path d="M12 6.45996C8.6865 6.45996 6 9.14646 6 12.46C6 15.7735 8.6865 18.46 12 18.46C15.3135 18.46 18 15.7735 18 12.46C18 9.14646 15.3135 6.45996 12 6.45996ZM12 16.21C9.933 16.21 8.25 14.527 8.25 12.46C8.25 10.3915 9.933 8.70996 12 8.70996C14.067 8.70996 15.75 10.3915 15.75 12.46C15.75 14.527 14.067 16.21 12 16.21Z" fill="#E8E8E8"/>
<path d="M18.4499 6.80945C18.8915 6.80945 19.2494 6.45149 19.2494 6.00995C19.2494 5.56839 18.8915 5.21045 18.4499 5.21045C18.0083 5.21045 17.6504 5.56839 17.6504 6.00995C17.6504 6.45149 18.0083 6.80945 18.4499 6.80945Z" fill="#E8E8E8"/>
</g>
<defs>
<clipPath id="clip0_4_4457">
<rect width="24" height="24" fill="white" transform="translate(0 0.459961)"/>
</clipPath>
</defs>
</svg>
