<svg width="117" height="464" viewBox="0 0 117 464" fill="none" xmlns="http://www.w3.org/2000/svg">
<g clip-path="url(#clip0_15_5446)">
<path d="M29.3806 203H87.4006C103.411 203 116.391 215.984 116.391 232C116.391 248.016 103.411 261 87.4006 261H29.3806C13.3706 261 0.390625 248.016 0.390625 232C0.390625 215.984 13.3706 203 29.3806 203Z" fill="white"/>
<path d="M16.3691 237.488V226.288H19.6171L22.0651 236.336H22.3211L24.7691 226.288H28.0171V237.488H26.3371V227.504H26.0811L23.6491 237.488H20.7371L18.3051 227.504H18.0491V237.488H16.3691Z" fill="#16181C"/>
<path d="M30.3535 237.488V226.288H37.4095V227.856H32.0815V231.072H36.9615V232.64H32.0815V235.92H37.4895V237.488H30.3535Z" fill="#16181C"/>
<path d="M39.291 237.488V226.288H42.619L45.659 236.336H45.915V226.288H47.627V237.488H44.299L41.259 227.424H41.003V237.488H39.291Z" fill="#16181C"/>
<path d="M54.1558 237.712C53.2708 237.712 52.5078 237.552 51.8678 237.232C51.2388 236.912 50.7478 236.453 50.3958 235.856C50.0548 235.248 49.8838 234.512 49.8838 233.648V226.288H51.6278V233.696C51.6278 234.485 51.8468 235.093 52.2838 235.52C52.7208 235.947 53.3448 236.16 54.1558 236.16C54.9668 236.16 55.5908 235.947 56.0278 235.52C56.4648 235.093 56.6838 234.485 56.6838 233.696V226.288H58.4118V233.648C58.4118 234.512 58.2408 235.248 57.8998 235.856C57.5588 236.453 57.0678 236.912 56.4278 237.232C55.7878 237.552 55.0308 237.712 54.1558 237.712Z" fill="#16181C"/>
<path d="M68.5635 226.333H98.2595" stroke="#16181C" stroke-width="2"/>
<path d="M81.2891 237.667H98.2591" stroke="#16181C" stroke-width="2"/>
</g>
<defs>
<clipPath id="clip0_15_5446">
<rect width="116" height="464" fill="white" transform="translate(0.390625)"/>
</clipPath>
</defs>
</svg>
