<svg width="24" height="25" viewBox="0 0 24 25" fill="none" xmlns="http://www.w3.org/2000/svg">
<g clip-path="url(#clip0_4_4468)">
<path d="M5.367 7.95996H0V24.46H5.367V7.95996Z" fill="#E8E8E8"/>
<path d="M19.986 8.15346C19.929 8.13546 19.875 8.11596 19.815 8.09946C19.743 8.08296 19.671 8.06946 19.5975 8.05746C19.3125 8.00046 19.0005 7.95996 18.6345 7.95996C15.5055 7.95996 13.521 10.2355 12.867 11.1145V7.95996H7.5V24.46H12.867V15.46C12.867 15.46 16.923 9.81096 18.6345 13.96C18.6345 17.6635 18.6345 24.46 18.6345 24.46H24V13.3255C24 10.8325 22.2915 8.75496 19.986 8.15346Z" fill="#E8E8E8"/>
<path d="M2.625 5.70996C4.07475 5.70996 5.25 4.53471 5.25 3.08496C5.25 1.63521 4.07475 0.459961 2.625 0.459961C1.17525 0.459961 0 1.63521 0 3.08496C0 4.53471 1.17525 5.70996 2.625 5.70996Z" fill="#E8E8E8"/>
</g>
<defs>
<clipPath id="clip0_4_4468">
<rect width="24" height="24" fill="white" transform="translate(0 0.459961)"/>
</clipPath>
</defs>
</svg>
