<svg width="24" height="25" viewBox="0 0 24 25" fill="none" xmlns="http://www.w3.org/2000/svg">
<g clip-path="url(#clip0_4_4475)">
<path d="M12.326 0.459961C5.74815 0.459961 2.25 4.67515 2.25 9.27135C2.25 11.4029 3.44104 14.0611 5.34763 14.9041C5.63715 15.0346 5.79465 14.9791 5.85915 14.7106C5.91615 14.5066 6.16667 13.524 6.28817 13.0605C6.32567 12.912 6.30617 12.783 6.18617 12.6435C5.55313 11.9115 5.05061 10.5779 5.05061 9.32685C5.05061 6.12122 7.59923 3.00857 11.9359 3.00857C15.6861 3.00857 18.3097 5.44469 18.3097 8.92934C18.3097 12.867 16.2261 15.5911 13.5185 15.5911C12.0199 15.5911 10.9039 14.4151 11.2579 12.96C11.6854 11.2274 12.524 9.36436 12.524 8.1148C12.524 6.99426 11.8909 6.0672 10.5979 6.0672C9.0723 6.0672 7.83474 7.57778 7.83474 9.60587C7.83474 10.8944 8.29076 11.7645 8.29076 11.7645C8.29076 11.7645 6.78169 17.8607 6.50119 18.9993C6.02717 20.9269 6.56569 24.0486 6.61219 24.3171C6.64069 24.4656 6.80719 24.5121 6.90021 24.3906C7.04871 24.1956 8.87278 21.5929 9.38432 19.7119C9.57032 19.0263 10.3339 16.2467 10.3339 16.2467C10.8364 17.1542 12.287 17.9147 13.832 17.9147C18.4282 17.9147 21.7494 13.8751 21.7494 8.86184C21.7329 4.05563 17.6197 0.459961 12.326 0.459961Z" fill="#E8E8E8"/>
</g>
<defs>
<clipPath id="clip0_4_4475">
<rect width="24" height="24" fill="white" transform="translate(0 0.459961)"/>
</clipPath>
</defs>
</svg>
