<svg width="24" height="25" viewBox="0 0 24 25" fill="none" xmlns="http://www.w3.org/2000/svg">
<g clip-path="url(#clip0_4_4480)">
<path d="M12 0.459961C5.3835 0.459961 0 5.84346 0 12.46C0 19.0765 5.3835 24.46 12 24.46C18.6165 24.46 24 19.0765 24 12.46C24 5.84346 18.6165 0.459961 12 0.459961ZM17.505 17.782C17.358 17.9905 17.127 18.1015 16.8915 18.1015C16.7415 18.1015 16.5915 18.058 16.461 17.965C13.6485 15.988 8.97 15.8785 5.811 16.615C5.4105 16.7095 5.004 16.4575 4.911 16.054C4.818 15.6505 5.067 15.247 5.472 15.1525C8.9445 14.3485 14.1345 14.4955 17.322 16.738C17.661 16.9765 17.742 17.443 17.505 17.782ZM18.969 14.8555C18.822 15.0595 18.5925 15.1675 18.36 15.1675C18.207 15.1675 18.0555 15.1225 17.922 15.0265C14.6595 12.685 10.6515 12.103 5.3025 13.195C4.899 13.2745 4.5 13.0165 4.4175 12.61C4.3335 12.205 4.596 11.8075 5.001 11.725C10.7865 10.5445 15.1695 11.2045 18.7965 13.807C19.1325 14.05 19.2105 14.518 18.969 14.8555ZM20.448 10.9255C20.3025 11.14 20.0655 11.254 19.827 11.254C19.6815 11.254 19.5345 11.212 19.4055 11.125C15.27 8.31846 8.9835 8.30496 4.914 9.74496C4.524 9.87996 4.095 9.67746 3.957 9.28596C3.819 8.89596 4.023 8.46696 4.4145 8.32896C8.841 6.76446 15.7005 6.79746 20.25 9.88296C20.592 10.1155 20.679 10.582 20.448 10.9255Z" fill="#E8E8E8"/>
</g>
<defs>
<clipPath id="clip0_4_4480">
<rect width="24" height="24" fill="white" transform="translate(0 0.459961)"/>
</clipPath>
</defs>
</svg>
