<svg width="24" height="25" viewBox="0 0 24 25" fill="none" xmlns="http://www.w3.org/2000/svg">
<g clip-path="url(#clip0_4_4485)">
<path d="M9.87381 11.74C10.3718 11.4895 10.7484 11.2105 11.0064 10.909C11.4654 10.3659 11.692 9.64587 11.692 8.75329C11.692 7.88472 11.4654 7.14216 11.0124 6.5196C10.2563 5.50551 8.97673 4.98647 7.16758 4.95947H0V19.5902H6.68304C7.43612 19.5902 8.13368 19.5257 8.77871 19.3937C9.42377 19.2602 9.98182 19.0156 10.4544 18.6586C10.8744 18.3481 11.2254 17.9625 11.5044 17.508C11.9455 16.8209 12.166 16.0424 12.166 15.1753C12.166 14.3352 11.9725 13.6197 11.5885 13.0316C11.1999 12.4436 10.6299 12.0131 9.87381 11.74ZM2.95674 7.50068H6.18501C6.89456 7.50068 7.47962 7.57718 7.93866 7.7287C8.46969 7.94922 8.73521 8.39775 8.73521 9.08181C8.73521 9.69537 8.53269 10.1244 8.13218 10.3659C7.72864 10.6074 7.2051 10.7289 6.56304 10.7289H2.95674V7.50068ZM8.06166 16.7939C7.70464 16.9665 7.2021 17.052 6.55854 17.052H2.95674V13.1501H6.60804C7.2441 13.1546 7.73914 13.2386 8.09316 13.3962C8.72321 13.6812 9.03675 14.2032 9.03675 14.9668C9.03675 15.8669 8.71271 16.4729 8.06166 16.7939Z" fill="#E8E8E8"/>
<path d="M21.693 5.64209H15.3369V7.46324H21.693V5.64209Z" fill="white"/>
<path d="M23.9014 12.8292C23.7694 11.9817 23.4784 11.2361 23.0254 10.5925C22.5289 9.86349 21.8988 9.32943 21.1323 8.99191C20.3688 8.65287 19.5091 8.48337 18.5521 8.48487C16.9454 8.48487 15.6403 8.98741 14.6307 9.98499C13.6242 10.9856 13.1201 12.4242 13.1201 14.2993C13.1201 16.299 13.6767 17.7436 14.7957 18.6302C15.9103 19.5183 17.1975 19.9608 18.6586 19.9608C20.4273 19.9608 21.8028 19.4343 22.7854 18.3842C23.4139 17.7211 23.7694 17.0686 23.8474 16.428H20.9193C20.7498 16.7445 20.5533 16.9921 20.3283 17.1721C19.9203 17.5021 19.3891 17.6671 18.7381 17.6671C18.1185 17.6671 17.5935 17.5306 17.1555 17.2591C16.4324 16.824 16.0544 16.062 16.0064 14.9774H23.9974C24.0094 14.0428 23.9794 13.3243 23.9014 12.8292ZM16.0784 13.1097C16.1834 12.4062 16.4384 11.8481 16.8434 11.4356C17.2485 11.0246 17.8215 10.8176 18.5551 10.8161C19.2316 10.8161 19.7973 11.0096 20.2578 11.3981C20.7123 11.7896 20.9688 12.3582 21.0213 13.1097H16.0784Z" fill="#E8E8E8"/>
</g>
<defs>
<clipPath id="clip0_4_4485">
<rect width="24" height="24" fill="white" transform="translate(0 0.459961)"/>
</clipPath>
</defs>
</svg>
